# Blender v2.79 (sub 0) OBJ File: ''
# www.blender.org
mtllib TV.mtl
o Cube
v 0.119884 -1.000000 -0.119884
v 0.119884 -1.000000 0.119884
v -0.119884 -1.000000 0.119884
v -0.119884 -1.000000 -0.119884
v 0.119884 1.000000 -0.119884
v 0.119884 1.000000 0.119884
v -0.119884 1.000000 0.119884
v -0.119884 1.000000 -0.119884
v 0.112606 1.025274 -0.119732
v 0.112606 1.025274 0.120035
v -0.127161 1.025274 0.120035
v -0.127161 1.025274 -0.119732
v 0.112606 5.111856 -0.119732
v 0.112606 5.111856 0.120035
v -0.127161 5.111856 0.120035
v -0.127161 5.111856 -0.119732
v 0.112606 1.212541 -5.297233
v -0.127161 1.212541 -5.297235
v 0.112606 1.212541 5.297540
v -0.127161 1.212541 5.297535
v 0.112606 4.924589 -5.297233
v -0.127161 4.924589 -5.297235
v 0.112606 4.924589 5.297540
v -0.127161 4.924589 5.297535
v -0.127161 5.111856 4.892650
v 0.112606 5.111856 4.892654
v -0.127161 1.025274 4.892650
v 0.112606 1.025274 4.892655
v -0.127161 5.111856 -4.892350
v -0.127161 1.025274 -4.892350
v 0.112606 5.111856 -4.892348
v 0.112606 1.025274 -4.892348
v 0.112606 1.608415 0.120035
v 0.112606 4.528716 0.120035
v -0.127161 4.528716 0.120035
v -0.127161 1.608415 0.120035
v 0.112606 1.608415 -0.119732
v 0.112606 4.528716 -0.119732
v -0.127161 4.528716 -0.119732
v -0.127161 1.608415 -0.119732
v 0.112606 1.608415 5.559419
v 0.112606 4.528716 5.559419
v -0.127161 4.528716 5.559413
v -0.127161 1.608415 5.559413
v 0.112606 1.608415 -5.559111
v 0.112606 4.528716 -5.559111
v -0.127161 4.528716 -5.559113
v -0.127161 1.608415 -5.559113
v 0.112606 4.528716 4.892655
v 0.112606 1.608415 4.892655
v -0.127161 1.608415 4.892651
v -0.127161 4.528716 4.892651
v 0.112606 1.608415 -4.892349
v 0.112606 4.528716 -4.892349
v -0.127161 4.528716 -4.892351
v -0.127161 1.608415 -4.892351
vn 0.0000 -1.0000 0.0000
vn -0.9610 -0.2767 -0.0000
vn 1.0000 0.0000 0.0000
vn -0.0000 -0.0000 1.0000
vn -1.0000 -0.0000 -0.0000
vn 0.0000 0.0000 -1.0000
vn 0.0000 0.0060 -1.0000
vn -0.0000 -0.0060 1.0000
vn 0.9610 0.2767 0.0000
vn 0.0000 1.0000 0.0000
vn -0.0000 0.9076 0.4198
vn -0.0000 0.5517 0.8340
vn 0.0000 0.5517 -0.8340
vn -0.0000 -0.9076 0.4198
vn 0.0000 0.9076 -0.4198
vn 0.0000 -0.9076 -0.4198
vn 0.0000 -0.5517 -0.8340
vn -0.0000 -0.5517 0.8340
usemtl Material
s off
f 1//1 2//1 3//1 4//1
f 8//2 7//2 11//2 12//2
f 1//3 5//3 6//3 2//3
f 2//4 6//4 7//4 3//4
f 3//5 7//5 8//5 4//5
f 5//6 1//6 4//6 8//6
f 55//5 29//5 22//5 47//5
f 5//7 8//7 12//7 9//7
f 7//8 6//8 10//8 11//8
f 6//9 5//9 9//9 10//9
f 13//10 16//10 15//10 14//10
f 34//3 38//3 13//3 14//3
f 39//5 35//5 15//5 16//5
f 26//11 25//11 24//11 23//11
f 43//12 42//12 23//12 24//12
f 46//13 47//13 22//13 21//13
f 51//5 27//5 20//5 44//5
f 27//14 28//14 19//14 20//14
f 29//15 31//15 21//15 22//15
f 53//3 32//3 17//3 45//3
f 49//3 26//3 23//3 42//3
f 32//16 30//16 18//16 17//16
f 34//3 14//3 26//3 49//3
f 11//1 10//1 28//1 27//1
f 36//5 11//5 27//5 51//5
f 14//10 15//10 25//10 26//10
f 9//1 12//1 30//1 32//1
f 37//3 9//3 32//3 53//3
f 16//10 13//10 31//10 29//10
f 39//5 16//5 29//5 55//5
f 12//5 40//5 56//5 30//5
f 40//5 39//5 55//5 56//5
f 13//3 38//3 54//3 31//3
f 38//3 37//3 53//3 54//3
f 15//5 35//5 52//5 25//5
f 35//5 36//5 51//5 52//5
f 10//3 33//3 50//3 28//3
f 33//3 34//3 49//3 50//3
f 28//3 50//3 41//3 19//3
f 50//3 49//3 42//3 41//3
f 31//3 54//3 46//3 21//3
f 54//3 53//3 45//3 46//3
f 25//5 52//5 43//5 24//5
f 52//5 51//5 44//5 43//5
f 17//17 18//17 48//17 45//17
f 45//6 48//6 47//6 46//6
f 20//18 19//18 41//18 44//18
f 44//4 41//4 42//4 43//4
f 12//5 11//5 36//5 40//5
f 40//5 36//5 35//5 39//5
f 10//3 9//3 37//3 33//3
f 33//3 37//3 38//3 34//3
f 30//5 56//5 48//5 18//5
f 56//5 55//5 47//5 48//5
