# Blender v2.79 (sub 0) OBJ File: ''
# www.blender.org
mtllib Grenade.mtl
o Цилиндр
v 0.111799 0.000000 -0.410787
v 0.278318 0.000000 0.410787
v 0.090448 -0.065714 -0.410787
v 0.225164 -0.163591 0.410787
v 0.034548 -0.106327 -0.410787
v 0.086005 -0.264696 0.410787
v -0.034548 -0.106327 -0.410787
v -0.086005 -0.264696 0.410787
v -0.090447 -0.065714 -0.410787
v -0.225164 -0.163591 0.410787
v -0.111799 -0.000000 -0.410787
v -0.278318 0.000000 0.410787
v -0.090447 0.065714 -0.410787
v -0.225164 0.163591 0.410787
v -0.034548 0.106327 -0.410787
v -0.086005 0.264696 0.410787
v 0.034548 0.106327 -0.410787
v 0.086005 0.264696 0.410787
v 0.090448 0.065714 -0.410787
v 0.225164 0.163591 0.410787
v 0.172847 0.000000 0.819724
v 0.139836 -0.101597 0.819724
v 0.053413 -0.164387 0.819724
v -0.053413 -0.164387 0.819724
v -0.139836 -0.101597 0.819724
v -0.172847 -0.000000 0.819724
v -0.139836 0.101597 0.819724
v -0.053413 0.164387 0.819724
v 0.053413 0.164387 0.819724
v 0.139836 0.101597 0.819724
v -0.000000 -0.000000 1.012220
v 0.302363 0.000000 0.102308
v 0.244616 -0.177724 0.102308
v 0.093435 -0.287564 0.102308
v -0.093435 -0.287564 0.102308
v -0.244616 -0.177724 0.102308
v -0.302363 0.000000 0.102308
v -0.244616 0.177724 0.102308
v -0.093435 0.287564 0.102308
v 0.093435 0.287564 0.102308
v 0.244616 0.177724 0.102308
v 0.199856 0.000000 -0.884357
v 0.161687 -0.117472 -0.884357
v 0.061759 -0.190074 -0.884357
v -0.061759 -0.190074 -0.884357
v -0.161687 -0.117472 -0.884357
v -0.199856 0.000000 -0.884357
v -0.161687 0.117472 -0.884357
v -0.061759 0.190074 -0.884357
v 0.061759 0.190074 -0.884357
v 0.161687 0.117472 -0.884357
v -0.090447 0.065714 -0.747810
v -0.111799 -0.000000 -0.747810
v -0.090447 -0.065714 -0.747810
v -0.034548 -0.106327 -0.747810
v 0.090448 -0.065714 -0.747810
v 0.111799 0.000000 -0.747810
v 0.034548 -0.106327 -0.747810
v 0.090448 0.065714 -0.747810
v 0.034548 0.106327 -0.747810
v -0.034548 0.106327 -0.747810
v 0.000000 -0.000000 -0.835533
vt 0.245141 0.673997
vt 0.198282 0.759054
vt 0.110245 0.710476
vt 0.149498 0.621222
vt 0.658748 0.392701
vt 0.627069 0.500000
vt 0.531147 0.472803
vt 0.554539 0.363154
vt 0.753725 0.769790
vt 0.749386 0.649195
vt 0.832203 0.662394
vt 0.843697 0.784129
vt 0.476564 0.347904
vt 0.476564 0.470244
vt 0.377319 0.474133
vt 0.368745 0.352130
vt 0.297904 0.502252
vt 0.282469 0.382677
vt 0.554539 0.636846
vt 0.531147 0.527197
vt 0.627069 0.500000
vt 0.658748 0.607299
vt 1.000000 0.055916
vt 0.950643 0.139379
vt 0.864089 0.087910
vt 0.905969 0.000000
vt 0.000000 0.270562
vt 0.011231 0.156199
vt 0.091578 0.132428
vt 0.087288 0.244737
vt 0.773400 0.085089
vt 0.805708 0.238128
vt 0.749386 0.236375
vt 0.190891 0.132428
vt 0.195181 0.244737
vt 0.271238 0.156199
vt 0.282469 0.270562
vt 0.110396 0.000000
vt 0.172074 0.000000
vt 0.859461 0.270092
vt 1.000000 0.219837
vt 0.890114 0.320059
vt 0.402413 0.652641
vt 0.353094 0.670104
vt 0.464049 0.650226
vt 0.111021 0.892722
vt 0.056346 0.862553
vt 0.776314 0.473791
vt 0.827747 0.481988
vt 0.019517 0.710659
vt 0.000000 0.862667
vt 0.250000 0.837837
vt 0.143140 0.941649
vt 0.437207 0.764747
vt 0.027855 0.990647
vt 0.773433 0.365215
vt 0.140435 0.990647
vt 0.843697 0.365215
vt 0.161181 0.483097
vt 0.193456 0.492646
vt 0.121288 0.483097
vt 0.089013 0.492646
vt 0.684349 0.846829
vt 0.749386 0.608339
vt 0.717862 0.847213
vt 0.645817 0.857754
vt 0.616986 0.875815
vt 0.476564 0.685692
vt 0.437358 0.200184
vt 0.397491 0.201746
vt 0.645817 0.142246
vt 0.476564 0.314308
vt 0.616986 0.124185
vt 0.684349 0.153171
vt 0.717862 0.152787
vt 0.749386 0.391661
vt 0.838183 0.827599
vt 0.821254 0.861709
vt 0.749386 0.845105
vt 0.779649 0.784129
vt 0.393024 0.074440
vt 0.361123 0.085735
vt 0.317762 0.022985
vt 0.374788 0.002793
vt 0.432890 0.072878
vt 0.446055 0.000000
vt 0.356026 0.864729
vt 0.365137 0.905778
vt 0.298756 0.939289
vt 0.282469 0.865911
vt 0.876071 0.858187
vt 0.842428 0.858187
vt 0.838184 0.784129
vt 0.898325 0.784129
vt 0.388989 0.934900
vt 0.341396 0.991349
vt 0.365137 0.827435
vt 0.298756 0.799241
vt 0.388989 0.808139
vt 0.341396 0.764747
vt 0.821254 0.903872
vt 0.838183 0.937982
vt 0.779649 0.981452
vt 0.749386 0.920476
vt 0.749386 0.971398
vt 0.715872 0.971014
vt 0.121288 0.611673
vt 0.089013 0.621222
vt 0.161181 0.611673
vt 0.193456 0.621222
vt 0.677341 0.018061
vt 0.715872 0.028986
vt 0.648510 0.000000
vt 0.749386 0.028602
vt 0.677341 0.981939
vt 0.648509 1.000000
vt 0.419257 0.812714
vt 0.458369 0.764747
vt 0.458369 0.873710
vt 0.903606 0.722176
vt 0.887454 0.783152
vt 0.843697 0.684491
vt 0.887454 0.562538
vt 0.861321 0.585829
vt 0.843697 0.463877
vt 0.887454 0.365215
vt 0.903606 0.426192
vt 0.877295 0.967150
vt 0.838184 0.919183
vt 0.877295 0.858187
vt 0.887455 0.585829
vt 0.903606 0.646805
vt 0.903606 0.501562
vt 0.388990 0.880960
vn 0.9911 0.0000 -0.1330
vn 0.9868 0.0000 0.1616
vn 0.7984 -0.5800 0.1616
vn 0.8018 -0.5825 -0.1330
vn 0.3049 -0.9385 0.1616
vn 0.3063 -0.9426 -0.1330
vn -0.3049 -0.9385 0.1616
vn -0.3063 -0.9426 -0.1330
vn -0.7984 -0.5800 0.1616
vn -0.8018 -0.5825 -0.1330
vn -0.9868 0.0000 0.1616
vn -0.9911 0.0000 -0.1330
vn -0.7984 0.5800 0.1616
vn -0.8018 0.5825 -0.1330
vn -0.3049 0.9385 0.1616
vn -0.3063 0.9426 -0.1330
vn 0.3049 0.9385 0.1616
vn 0.3063 0.9426 -0.1330
vn -0.2753 0.8474 0.4539
vn 0.2753 0.8474 0.4539
vn 0.7984 0.5800 0.1616
vn 0.8018 0.5825 -0.1330
vn 0.7208 0.5237 0.4539
vn -0.7208 0.5237 0.4539
vn -0.8910 0.0000 0.4539
vn -0.7208 -0.5237 0.4539
vn -0.2753 -0.8474 0.4539
vn 0.8910 0.0000 0.4539
vn 0.7208 -0.5237 0.4539
vn 0.2753 -0.8474 0.4539
vn 0.0000 0.0000 1.0000
vn 0.7953 0.5778 -0.1832
vn 0.9831 0.0000 -0.1832
vn 0.3038 0.9349 -0.1832
vn -0.3038 0.9349 -0.1832
vn -0.7953 0.5778 -0.1832
vn -0.9831 0.0000 -0.1832
vn -0.7953 -0.5778 -0.1832
vn -0.3038 -0.9349 -0.1832
vn 0.3038 -0.9349 -0.1832
vn 0.7953 -0.5778 -0.1832
vn -0.9543 0.0000 0.2988
vn -0.7720 0.5609 0.2988
vn -0.6973 0.5066 -0.5071
vn -0.8618 0.0000 -0.5071
vn -0.7720 -0.5609 0.2988
vn -0.6973 -0.5066 -0.5071
vn -0.2949 -0.9076 0.2988
vn -0.2663 -0.8197 -0.5071
vn 0.9543 0.0000 0.2988
vn 0.7720 -0.5609 0.2988
vn 0.6973 -0.5066 -0.5071
vn 0.8618 0.0000 -0.5071
vn 0.2949 -0.9076 0.2988
vn 0.2663 -0.8197 -0.5071
vn 0.7720 0.5609 0.2988
vn 0.6973 0.5066 -0.5071
vn 0.2949 0.9076 0.2988
vn 0.2663 0.8197 -0.5071
vn -0.2949 0.9076 0.2988
vn -0.2663 0.8197 -0.5071
vn 0.0000 0.0000 -1.0000
usemtl None
s 1
f 32/1/1 2/2/2 4/3/3 33/4/4
f 33/5/4 4/6/3 6/7/5 34/8/6
f 34/9/6 6/10/5 8/11/7 35/12/8
f 35/13/8 8/14/7 10/15/9 36/16/10
f 36/16/10 10/15/9 12/17/11 37/18/12
f 37/19/12 12/20/11 14/21/13 38/22/14
f 38/23/14 14/24/13 16/25/15 39/26/16
f 39/27/16 16/28/15 18/29/17 40/30/18
f 18/31/17 16/25/15 28/32/19 29/33/20
f 40/30/18 18/29/17 20/34/21 41/35/22
f 41/35/22 20/34/21 2/36/2 32/37/1
f 20/34/21 18/29/17 29/38/20 30/39/23
f 16/25/15 14/24/13 27/40/24 28/32/19
f 14/24/13 12/41/11 26/42/25 27/40/24
f 12/17/11 10/15/9 25/43/26 26/44/25
f 10/15/9 8/14/7 24/45/27 25/43/26
f 4/3/3 2/2/2 21/46/28 22/47/29
f 8/11/7 6/10/5 23/48/30 24/49/27
f 6/50/5 4/3/3 22/47/29 23/51/30
f 2/2/2 20/52/21 30/53/23 21/46/28
f 25/43/26 24/45/27 31/54/31
f 22/47/29 21/46/28 31/55/31
f 29/33/20 28/32/19 31/56/31
f 26/44/25 25/43/26 31/54/31
f 23/51/30 22/47/29 31/55/31
f 30/53/23 29/57/20 31/55/31
f 27/40/24 26/42/25 31/56/31
f 24/49/27 23/48/30 31/58/31
f 21/46/28 30/53/23 31/55/31
f 28/32/19 27/40/24 31/56/31
f 19/59/32 41/35/22 32/37/1 1/60/33
f 17/61/34 40/30/18 41/35/22 19/59/32
f 15/62/35 39/27/16 40/30/18 17/61/34
f 13/63/36 38/22/14 39/64/16 15/65/35
f 11/66/37 37/19/12 38/22/14 13/63/36
f 9/67/38 36/68/10 37/19/12 11/66/37
f 7/69/39 35/13/8 36/16/10 9/70/38
f 5/71/40 34/8/6 35/72/8 7/73/39
f 3/74/41 33/5/4 34/8/6 5/71/40
f 1/75/33 32/76/1 33/5/4 3/74/41
f 53/77/42 52/78/43 48/79/44 47/80/45
f 54/81/46 53/82/42 47/83/45 46/84/47
f 55/85/48 54/81/46 46/84/47 45/86/49
f 57/87/50 56/88/51 43/89/52 42/90/53
f 58/91/54 55/92/48 45/93/49 44/94/55
f 56/88/51 58/95/54 44/96/55 43/89/52
f 59/97/56 57/87/50 42/90/53 51/98/57
f 60/99/58 59/97/56 51/98/57 50/100/59
f 61/101/60 60/102/58 50/103/59 49/104/61
f 52/78/43 61/101/60 49/104/61 48/79/44
f 13/63/36 15/65/35 61/105/60 52/106/43
f 15/62/35 17/61/34 60/107/58 61/108/60
f 17/61/34 19/59/32 59/109/56 60/107/58
f 19/59/32 1/60/33 57/110/50 59/109/56
f 3/74/41 5/71/40 58/111/54 56/112/51
f 5/71/40 7/73/39 55/113/48 58/111/54
f 1/75/33 3/74/41 56/112/51 57/114/50
f 7/69/39 9/70/38 54/81/46 55/85/48
f 9/67/38 11/66/37 53/115/42 54/116/46
f 11/66/37 13/63/36 52/106/43 53/115/42
f 46/117/47 47/118/45 62/119/62
f 43/120/52 44/121/55 62/122/62
f 50/123/59 51/124/57 62/125/62
f 47/126/45 48/127/44 62/125/62
f 44/128/55 45/129/49 62/130/62
f 51/131/57 42/132/53 62/122/62
f 48/127/44 49/133/61 62/125/62
f 45/134/49 46/117/47 62/119/62
f 42/132/53 43/120/52 62/122/62
f 49/133/61 50/123/59 62/125/62
